<svg width="185" height="63" viewBox="0 0 185 63" fill="none" xmlns="http://www.w3.org/2000/svg">
<path d="M54.944 62.128C54.0907 62.128 53.2747 62 52.496 61.744C51.7173 61.4773 51.104 61.136 50.656 60.72L51.248 59.472C51.6747 59.8453 52.2187 60.1547 52.88 60.4C53.5413 60.6453 54.2293 60.768 54.944 60.768C55.5947 60.768 56.1227 60.6933 56.528 60.544C56.9333 60.3947 57.232 60.192 57.424 59.936C57.616 59.6693 57.712 59.3707 57.712 59.04C57.712 58.656 57.584 58.3467 57.328 58.112C57.0827 57.8773 56.7573 57.6907 56.352 57.552C55.9573 57.4027 55.52 57.2747 55.04 57.168C54.56 57.0613 54.0747 56.9387 53.584 56.8C53.104 56.6507 52.6613 56.464 52.256 56.24C51.8613 56.016 51.5413 55.7173 51.296 55.344C51.0507 54.96 50.928 54.4693 50.928 53.872C50.928 53.296 51.0773 52.768 51.376 52.288C51.6853 51.7973 52.1547 51.408 52.784 51.12C53.424 50.8213 54.2347 50.672 55.216 50.672C55.8667 50.672 56.512 50.7573 57.152 50.928C57.792 51.0987 58.3467 51.344 58.816 51.664L58.288 52.944C57.808 52.624 57.3013 52.3947 56.768 52.256C56.2347 52.1067 55.7173 52.032 55.216 52.032C54.5867 52.032 54.0693 52.112 53.664 52.272C53.2587 52.432 52.96 52.6453 52.768 52.912C52.5867 53.1787 52.496 53.4773 52.496 53.808C52.496 54.2027 52.6187 54.5173 52.864 54.752C53.12 54.9867 53.4453 55.1733 53.84 55.312C54.2453 55.4507 54.688 55.5787 55.168 55.696C55.648 55.8027 56.128 55.9253 56.608 56.064C57.0987 56.2027 57.5413 56.384 57.936 56.608C58.3413 56.832 58.6667 57.1307 58.912 57.504C59.1573 57.8773 59.28 58.3573 59.28 58.944C59.28 59.5093 59.1253 60.0373 58.816 60.528C58.5067 61.008 58.0267 61.3973 57.376 61.696C56.736 61.984 55.9253 62.128 54.944 62.128ZM67.6853 62V52.192H63.8453V50.8H73.1093V52.192H69.2693V62H67.6853ZM83.2888 62.128C81.8168 62.128 80.6594 61.7067 79.8168 60.864C78.9741 60.0213 78.5528 58.7893 78.5528 57.168V50.8H80.1528V57.104C80.1528 58.352 80.4248 59.264 80.9688 59.84C81.5234 60.416 82.3021 60.704 83.3048 60.704C84.3181 60.704 85.0968 60.416 85.6408 59.84C86.1954 59.264 86.4728 58.352 86.4728 57.104V50.8H88.0248V57.168C88.0248 58.7893 87.6034 60.0213 86.7608 60.864C85.9288 61.7067 84.7714 62.128 83.2888 62.128ZM95.305 62V50.8H100.025C101.22 50.8 102.27 51.0347 103.177 51.504C104.094 51.9733 104.804 52.6293 105.305 53.472C105.817 54.3147 106.073 55.2907 106.073 56.4C106.073 57.5093 105.817 58.4853 105.305 59.328C104.804 60.1707 104.094 60.8267 103.177 61.296C102.27 61.7653 101.22 62 100.025 62H95.305ZM96.905 60.608H99.929C100.857 60.608 101.657 60.432 102.329 60.08C103.012 59.728 103.54 59.2373 103.913 58.608C104.286 57.968 104.473 57.232 104.473 56.4C104.473 55.5573 104.286 54.8213 103.913 54.192C103.54 53.5627 103.012 53.072 102.329 52.72C101.657 52.368 100.857 52.192 99.929 52.192H96.905V60.608ZM112.524 62V50.8H114.124V62H112.524ZM126.533 62.128C125.68 62.128 124.885 61.984 124.149 61.696C123.424 61.408 122.794 61.008 122.261 60.496C121.728 59.9733 121.312 59.3653 121.013 58.672C120.714 57.9787 120.565 57.2213 120.565 56.4C120.565 55.5787 120.714 54.8213 121.013 54.128C121.312 53.4347 121.728 52.832 122.261 52.32C122.794 51.7973 123.424 51.392 124.149 51.104C124.874 50.816 125.669 50.672 126.533 50.672C127.386 50.672 128.17 50.816 128.885 51.104C129.61 51.3813 130.24 51.7813 130.773 52.304C131.317 52.816 131.733 53.4187 132.021 54.112C132.32 54.8053 132.469 55.568 132.469 56.4C132.469 57.232 132.32 57.9947 132.021 58.688C131.733 59.3813 131.317 59.9893 130.773 60.512C130.24 61.024 129.61 61.424 128.885 61.712C128.17 61.9893 127.386 62.128 126.533 62.128ZM126.533 60.704C127.152 60.704 127.722 60.5973 128.245 60.384C128.778 60.1707 129.237 59.872 129.621 59.488C130.016 59.0933 130.32 58.6347 130.533 58.112C130.757 57.5893 130.869 57.0187 130.869 56.4C130.869 55.7813 130.757 55.2107 130.533 54.688C130.32 54.1653 130.016 53.712 129.621 53.328C129.237 52.9333 128.778 52.6293 128.245 52.416C127.722 52.2027 127.152 52.096 126.533 52.096C125.904 52.096 125.322 52.2027 124.789 52.416C124.266 52.6293 123.808 52.9333 123.413 53.328C123.018 53.712 122.709 54.1653 122.485 54.688C122.272 55.2107 122.165 55.7813 122.165 56.4C122.165 57.0187 122.272 57.5893 122.485 58.112C122.709 58.6347 123.018 59.0933 123.413 59.488C123.808 59.872 124.266 60.1707 124.789 60.384C125.322 60.5973 125.904 60.704 126.533 60.704Z" fill="#1B1B1B"/>
<path d="M3.15 37V12.7H6.7275V18.5725L6.1425 17.8075C6.4275 17.0575 6.795 16.3675 7.245 15.7375C7.71 15.1075 8.2275 14.59 8.7975 14.185C9.4275 13.675 10.14 13.285 10.935 13.015C11.73 12.745 12.54 12.5875 13.365 12.5425C14.19 12.4825 14.9625 12.535 15.6825 12.7V16.4575C14.8425 16.2325 13.92 16.1725 12.915 16.2775C11.91 16.3825 10.98 16.75 10.125 17.38C9.345 17.935 8.7375 18.61 8.3025 19.405C7.8825 20.2 7.59 21.0625 7.425 21.9925C7.26 22.9075 7.1775 23.845 7.1775 24.805V37H3.15ZM43.4021 8.9875H40.1396L43.0871 1.5625H46.3496L43.4021 8.9875ZM41.4671 37.675C39.0821 37.675 36.9971 37.15 35.2121 36.1C33.4421 35.035 32.0621 33.5575 31.0721 31.6675C30.0821 29.7625 29.5871 27.5425 29.5871 25.0075C29.5871 22.3525 30.0746 20.0575 31.0496 18.1225C32.0246 16.1725 33.3821 14.6725 35.1221 13.6225C36.8771 12.5575 38.9321 12.025 41.2871 12.025C43.7321 12.025 45.8096 12.5875 47.5196 13.7125C49.2446 14.8375 50.5346 16.4425 51.3896 18.5275C52.2596 20.6125 52.6346 23.095 52.5146 25.975H48.4646V24.535C48.4196 21.55 47.8121 19.3225 46.6421 17.8525C45.4721 16.3675 43.7321 15.625 41.4221 15.625C38.9471 15.625 37.0646 16.42 35.7746 18.01C34.4846 19.6 33.8396 21.88 33.8396 24.85C33.8396 27.715 34.4846 29.935 35.7746 31.51C37.0646 33.085 38.9021 33.8725 41.2871 33.8725C42.8921 33.8725 44.2871 33.505 45.4721 32.77C46.6571 32.035 47.5871 30.9775 48.2621 29.5975L52.1096 30.925C51.1646 33.07 49.7396 34.735 47.8346 35.92C45.9446 37.09 43.8221 37.675 41.4671 37.675ZM32.4896 25.975V22.7575H50.4446V25.975H32.4896ZM77.749 37.63C76.189 37.63 74.8465 37.3825 73.7215 36.8875C72.6115 36.3925 71.689 35.7325 70.954 34.9075C70.219 34.0825 69.6415 33.1675 69.2215 32.1625C68.8015 31.1575 68.5015 30.13 68.3215 29.08C68.1565 28.03 68.074 27.0475 68.074 26.1325V12.7H72.124V24.8725C72.124 26.0125 72.229 27.115 72.439 28.18C72.649 29.245 73.0015 30.205 73.4965 31.06C74.0065 31.915 74.6815 32.59 75.5215 33.085C76.3765 33.58 77.4415 33.8275 78.7165 33.8275C79.7215 33.8275 80.6365 33.655 81.4615 33.31C82.2865 32.965 82.9915 32.455 83.5765 31.78C84.1615 31.09 84.6115 30.22 84.9265 29.17C85.2415 28.12 85.399 26.8975 85.399 25.5025L88.0315 26.3125C88.0315 28.6525 87.604 30.67 86.749 32.365C85.909 34.06 84.7165 35.365 83.1715 36.28C81.6415 37.18 79.834 37.63 77.749 37.63ZM85.849 37V30.4975H85.399V12.7H89.4265V37H85.849ZM115.906 37.6525C113.011 37.6525 110.634 37.0225 108.774 35.7625C106.929 34.4875 105.796 32.71 105.376 30.43L109.471 29.7775C109.801 31.0975 110.559 32.1475 111.744 32.9275C112.929 33.6925 114.399 34.075 116.154 34.075C117.819 34.075 119.124 33.73 120.069 33.04C121.014 32.35 121.486 31.4125 121.486 30.2275C121.486 29.5375 121.329 28.9825 121.014 28.5625C120.699 28.1275 120.046 27.7225 119.056 27.3475C118.081 26.9725 116.604 26.5225 114.624 25.9975C112.479 25.4275 110.791 24.835 109.561 24.22C108.331 23.605 107.454 22.8925 106.929 22.0825C106.404 21.2725 106.141 20.29 106.141 19.135C106.141 17.71 106.531 16.465 107.311 15.4C108.091 14.32 109.179 13.4875 110.574 12.9025C111.984 12.3175 113.619 12.025 115.479 12.025C117.324 12.025 118.974 12.3175 120.429 12.9025C121.884 13.4875 123.054 14.32 123.939 15.4C124.839 16.465 125.371 17.71 125.536 19.135L121.441 19.8775C121.246 18.5725 120.616 17.545 119.551 16.795C118.501 16.045 117.144 15.6475 115.479 15.6025C113.904 15.5425 112.621 15.82 111.631 16.435C110.656 17.05 110.169 17.8825 110.169 18.9325C110.169 19.5175 110.349 20.02 110.709 20.44C111.084 20.86 111.766 21.2575 112.756 21.6325C113.761 22.0075 115.216 22.435 117.121 22.915C119.266 23.455 120.954 24.0475 122.184 24.6925C123.429 25.3225 124.314 26.0725 124.839 26.9425C125.364 27.7975 125.626 28.855 125.626 30.115C125.626 32.455 124.764 34.3 123.039 35.65C121.314 36.985 118.936 37.6525 115.906 37.6525ZM150.768 37.6525C147.873 37.6525 145.496 37.0225 143.636 35.7625C141.791 34.4875 140.658 32.71 140.238 30.43L144.333 29.7775C144.663 31.0975 145.421 32.1475 146.606 32.9275C147.791 33.6925 149.261 34.075 151.016 34.075C152.681 34.075 153.986 33.73 154.931 33.04C155.876 32.35 156.348 31.4125 156.348 30.2275C156.348 29.5375 156.191 28.9825 155.876 28.5625C155.561 28.1275 154.908 27.7225 153.918 27.3475C152.943 26.9725 151.466 26.5225 149.486 25.9975C147.341 25.4275 145.653 24.835 144.423 24.22C143.193 23.605 142.316 22.8925 141.791 22.0825C141.266 21.2725 141.003 20.29 141.003 19.135C141.003 17.71 141.393 16.465 142.173 15.4C142.953 14.32 144.041 13.4875 145.436 12.9025C146.846 12.3175 148.481 12.025 150.341 12.025C152.186 12.025 153.836 12.3175 155.291 12.9025C156.746 13.4875 157.916 14.32 158.801 15.4C159.701 16.465 160.233 17.71 160.398 19.135L156.303 19.8775C156.108 18.5725 155.478 17.545 154.413 16.795C153.363 16.045 152.006 15.6475 150.341 15.6025C148.766 15.5425 147.483 15.82 146.493 16.435C145.518 17.05 145.031 17.8825 145.031 18.9325C145.031 19.5175 145.211 20.02 145.571 20.44C145.946 20.86 146.628 21.2575 147.618 21.6325C148.623 22.0075 150.078 22.435 151.983 22.915C154.128 23.455 155.816 24.0475 157.046 24.6925C158.291 25.3225 159.176 26.0725 159.701 26.9425C160.226 27.7975 160.488 28.855 160.488 30.115C160.488 32.455 159.626 34.3 157.901 35.65C156.176 36.985 153.798 37.6525 150.768 37.6525ZM176.901 8.4025V4.2625H180.906V8.4025H176.901ZM176.901 37V12.7H180.906V37H176.901Z" fill="#1B1B1B"/>
</svg>
